<svg xmlns="http://www.w3.org/2000/svg" viewBox="0 0 24 24"><g fill="none" fill-rule="evenodd"><path d="M24 0v24H0V0zM12.6 23.3h-.2v.5h.2v-.5m.3-.2-.2.1v.5l.2.1v-.6m-.8 0v.6h.2v-.5z"/><path fill="currentColor" d="M11.1 20.6a8 8 0 0 0-.8-.4c-.8-.4-1.7-.7-2.8-.7a7 7 0 0 0-3.2.9 1.6 1.6 0 0 1-1.5 0A1.5 1.5 0 0 1 2 19V6.5c0-.6.3-1.3.9-1.6.8-.5 2.5-1.4 4.6-1.4A9 9 0 0 1 12 4.8a9 9 0 0 1 4.5-1.3c2 0 3.8.9 4.6 1.4.6.3.9 1 .9 1.6V19c0 .6-.4 1.1-.8 1.3a1.6 1.6 0 0 1-1.5 0 7 7 0 0 0-3.2-.8c-1 0-2 .3-2.8.7a8 8 0 0 0-.8.4c-.3.2-.5.4-.9.4s-.6-.2-.9-.4M4 18.3V6.5c.7-.4 2-1 3.5-1a7 7 0 0 1 3.5 1v11.8c-.9-.4-2.1-.8-3.5-.8s-2.6.4-3.5.8m9 0c.9-.4 2.1-.8 3.5-.8s2.6.4 3.5.8V6.5c-.7-.4-2-1-3.5-1a7 7 0 0 0-3.5 1z"/></g></svg>