<svg xmlns="http://www.w3.org/2000/svg" viewBox="0 0 24 24"><g fill="none"><path d="M24 0v24H0V0zM12.6 23.3h-.2v.5h.2v-.5m.3-.2-.2.1v.5l.2.1v-.6m-.8 0v.6h.2v-.5z"/><path fill="currentColor" d="M12 19a1 1 0 0 1 1 1v1a1 1 0 1 1-2 0v-1a1 1 0 0 1 1-1m6.4-2 .7.7a1 1 0 0 1-1.4 1.4l-.7-.7a1 1 0 0 1 1.4-1.4M5.6 17a1 1 0 0 1 1.5 1.3l-.8.8a1 1 0 0 1-1.5-1.3l.1-.1zM12 6a6 6 0 1 1 0 12 6 6 0 0 1 0-12m0 2a4 4 0 1 0 0 8 4 4 0 0 0 0-8m-8 3a1 1 0 0 1 .1 2H3a1 1 0 0 1-.1-2H3zm17 0a1 1 0 1 1 0 2h-1a1 1 0 1 1 0-2zM5 5a1 1 0 0 1 1.2-.2l.1.1.8.7a1 1 0 0 1-1.4 1.5l-.8-.8A1 1 0 0 1 5 5m14.2 0a1 1 0 0 1 0 1.4l-.7.8A1 1 0 1 1 17 5.5l.7-.7A1 1 0 0 1 19 5M12 2a1 1 0 0 1 1 1v1a1 1 0 1 1-2 0V3a1 1 0 0 1 1-1"/></g></svg>