<svg xmlns="http://www.w3.org/2000/svg" viewBox="0 0 24 24"><g fill="none"><path d="M24 0v24H0V0zM12.6 23.3h-.2v.5h.2v-.5m.3-.2-.2.1v.5l.2.1v-.6m-.8 0v.6h.2v-.5z"/><path fill="currentColor" d="M20 6a2 2 0 0 1 2 2v11.3a2 2 0 0 1-2 2H7a2 2 0 0 1-2-2V8a2 2 0 0 1 2-2zm-8.3 8-4.6 4.5v.1H7v.7h13v-.7h-.1l-2.3-2.3-.3.4a1 1 0 0 1-1.3 1.5zM17 3a2 2 0 0 1 2 1.9V5H5a1 1 0 0 0-1 .9V18a2 2 0 0 1-2-1.9V6a3 3 0 0 1 2.8-3H5zm3 5H7v7.8l3.8-3.8a1.3 1.3 0 0 1 1.8 0l3.3 3.2.8-.8a1.3 1.3 0 0 1 1.8 0l1.5 1.4zm-3.5 1.5a1.5 1.5 0 1 1 0 3 1.5 1.5 0 0 1 0-3"/></g></svg>