<svg xmlns="http://www.w3.org/2000/svg" viewBox="0 0 24 24"><g fill="none" fill-rule="evenodd"><path d="M24 0v24H0V0zM12.6 23.3h-.2v.5h.2v-.5m.3-.2-.2.1v.5l.2.1v-.6m-.8 0v.6h.2v-.5z"/><path fill="currentColor" d="M12 13c2.4 0 4.6.7 6.2 1.7.8.5 1.5 1 2 1.7.4.6.8 1.3.8 2.1s-.4 1.5-1 2l-2 1c-1.7.4-3.8.5-6 .5s-4.3-.1-6-.6c-.7-.2-1.4-.5-2-1-.6-.4-1-1-1-1.9 0-.8.4-1.5.8-2.1.5-.7 1.2-1.2 2-1.7A12 12 0 0 1 12 13m0 2c-2 0-3.8.6-5.1 1.4-.7.4-1.2.8-1.5 1.2-.3.4-.4.7-.4.9 0 .1 0 .3.3.4.2.2.6.4 1.3.6 1.3.4 3.2.5 5.4.5s4-.1 5.4-.5c.7-.2 1.1-.4 1.3-.6.3-.1.3-.3.3-.4 0-.2 0-.5-.4-.9-.3-.4-.8-.8-1.5-1.2A10 10 0 0 0 12 15m0-13a5 5 0 1 1 0 10 5 5 0 0 1 0-10m0 2a3 3 0 1 0 0 6 3 3 0 0 0 0-6"/></g></svg>